<?xml version="1.0" encoding="UTF-8"?><svg id="Layer_1" xmlns="http://www.w3.org/2000/svg" xmlns:xlink="http://www.w3.org/1999/xlink" viewBox="0 0 818.33333 114.75526"><defs><style>.cls-1{fill:url(#linear-gradient-2);}.cls-2{fill:#50c9fe;}.cls-3{fill:#3a5ee9;}.cls-4{fill:url(#linear-gradient-4);}.cls-5{fill:url(#linear-gradient-3);}.cls-6{fill:#06a0ed;}.cls-7{fill:#16bfff;}.cls-8{fill:url(#linear-gradient);}.cls-9{fill:#55bdfc;}.cls-10{fill:#1c324f;}</style><linearGradient id="linear-gradient" x1="258.26742" y1="84.20553" x2="353.06208" y2="84.20553" gradientUnits="userSpaceOnUse"><stop offset="0" stop-color="#3a6de9"/><stop offset=".54004" stop-color="#4586e9"/><stop offset="1" stop-color="#3a6de9"/></linearGradient><linearGradient id="linear-gradient-2" x1="258.26742" y1="99.79022" x2="353.06208" y2="99.79022" xlink:href="#linear-gradient"/><linearGradient id="linear-gradient-3" x1="306.03469" y1="84.12695" x2="306.03469" y2="32.19039" gradientUnits="userSpaceOnUse"><stop offset="0" stop-color="#4586e9"/><stop offset=".25233" stop-color="#3a6de9"/><stop offset=".49441" stop-color="#4e96f0"/><stop offset=".83613" stop-color="#4eccff"/></linearGradient><linearGradient id="linear-gradient-4" x1="306.03485" y1="84.45124" x2="306.03485" y2="31.8711" gradientUnits="userSpaceOnUse"><stop offset="0" stop-color="#3a5ee9"/><stop offset=".67598" stop-color="#16bfff"/></linearGradient></defs><path class="cls-8" d="M305.72495,98.84607c-1.78314,0-3.56627-.43035-5.18623-1.29022l-40.43171-21.46781c-1.68929-.89706-2.33144-2.99388-1.43437-4.68316.8958-1.68886,2.99219-2.33228,4.68274-1.43437l40.43171,21.46739c1.19256.63412,2.62186.64426,3.82288.02706l40.40676-20.73984c1.69986-.87508,3.78906-.20249,4.66245,1.4999.87339,1.70112.20207,3.78864-1.49947,4.66203l-40.40634,20.73984c-1.58402.81336-3.31643,1.2192-5.04841,1.2192Z"/><path class="cls-3" d="M305.72509,99.17036c-1.85543,0-3.70155-.4591-5.33842-1.32826l-40.43171-21.46781c-.89368-.47432-1.54894-1.26823-1.84528-2.23632-.29634-.96724-.19827-1.99197.27647-2.88523.4739-.89368,1.26739-1.54894,2.23463-1.84528.96893-.29677,1.99451-.19784,2.88692.27647l40.43171,21.46696c1.09914.58508,2.41641.59438,3.52231.02452l40.40676-20.739c.89833-.46333,1.92433-.54703,2.8865-.23758.9647.30945,1.75058.97654,2.21307,1.87783.46206.8996.54619,1.92602.23631,2.88904s-.97612,1.74763-1.87614,2.21011l-40.40634,20.73984c-1.59924.82097-3.39591,1.25471-5.1968,1.25471ZM261.73472,69.88896c-.30903,0-.61974.04608-.92327.13908-.80152.24561-1.45931.78884-1.85204,1.52907-.39315.74023-.47432,1.5891-.2287,2.39062.24519.80237.78842,1.46016,1.52864,1.85331l40.43171,21.46781c3.04122,1.61404,6.87298,1.64025,9.93407.06848l40.40634-20.73984c.74572-.38216,1.29783-1.03319,1.55443-1.83048.25703-.79814.18728-1.6487-.19531-2.39442-.38343-.74657-1.03446-1.29909-1.83387-1.5557-.79772-.25576-1.64701-.18643-2.39104.197l-40.40719,20.73984c-1.29529.66455-2.83619.6561-4.12387-.02959l-40.43128-21.46696c-.46037-.24435-.96217-.36821-1.46861-.36821Z"/><path class="cls-1" d="M310.77337,113.21177l40.40634-20.73984c1.70155-.87339,2.37286-2.9609,1.49947-4.66203-.87339-1.70197-2.96259-2.37329-4.66245-1.4999l-40.40676,20.73984c-1.20102.61721-2.63032.60706-3.82288-.02706l-40.43171-21.46781c-1.69056-.89791-3.78695-.25449-4.68274,1.43479-.89706,1.68929-.25491,3.7861,1.43437,4.68316l40.43171,21.46781c1.61996.85986,3.40309,1.29022,5.18623,1.29022,1.73198,0,3.46439-.40583,5.04841-1.2192Z"/><path class="cls-3" d="M305.72509,114.75526c-1.85543,0-3.70155-.4591-5.33842-1.32826l-40.43171-21.46781c-1.84486-.97908-2.54873-3.27712-1.5688-5.12197.4739-.89368,1.26739-1.54894,2.23463-1.8457.96808-.29677,1.99324-.19869,2.88692.27647l40.43171,21.46781c1.09914.58508,2.41641.59438,3.52231.02452l40.40676-20.73984c.90002-.46164,1.92602-.54534,2.88904-.23589.96343.31029,1.74889.97654,2.21053,1.87699.46206.8996.54619,1.92602.23631,2.88904s-.97612,1.74763-1.87614,2.21011l-40.40634,20.73984c-1.59924.82097-3.39591,1.25471-5.1968,1.25471ZM261.73472,85.47259c-.30903,0-.61974.0465-.92327.13951-.80152.24604-1.45931.78884-1.85204,1.52949-.81167,1.52864-.22828,3.43269,1.29994,4.24435l40.43171,21.46781c3.04122,1.61404,6.87298,1.64109,9.93407.06848l40.40634-20.73984c.74572-.38216,1.29783-1.03319,1.55443-1.83048.25703-.79814.18728-1.6487-.19531-2.39442-.38301-.74572-1.03361-1.29783-1.83175-1.55485-.79899-.25618-1.64913-.1877-2.39358.19615l-40.40676,20.73984c-1.29529.66455-2.83619.65525-4.12387-.02959l-40.43128-21.46781c-.46037-.24435-.96217-.36863-1.46861-.36863Z"/><path class="cls-5" d="M349.4789,55.0611l-4.40489-2.44182c-.15044,2.01026-.83608,4.54804-3.06595,6.21973l.23526.13042-34.6325,17.77641c-1.20229.61552-2.63158.60537-3.82372-.02706l-33.69479-17.89062c-.42987-.22824-.43123-.8437-.00238-1.07385l34.01042-18.25184c.96259-.51744,2.1078-.50941,3.06363.02114l6.85982,3.80264v-7.91948l-3.50154-1.94108c-3.02474-1.67618-6.64935-1.70197-9.69734-.06595l-37.87467,20.32514c-1.28222.6881-2.29548,1.84307-2.65917,3.25207-.61459,2.38104.48713,4.748,2.54517,5.84031l37.70247,20.01949c1.61953.85986,3.40182,1.29022,5.18538,1.29022,1.73156,0,3.46481-.40583,5.04926-1.2192l38.75425-19.89182c1.71639-.88121,2.69475-2.77468,2.35254-4.74755-.23865-1.37582-1.17999-2.53029-2.40126-3.20729Z"/><path class="cls-4" d="M305.72424,84.45124c-1.85543,0-3.70113-.4591-5.33757-1.32826l-37.70247-20.01906c-2.18876-1.16158-3.36025-3.67865-2.70704-6.21081.38654-1.4984,1.46387-2.72674,2.82739-3.45847l37.86812-20.32163c3.1304-1.67991,6.89992-1.65405,10.00699.06863l3.669,2.03425v8.66161l-7.3418-4.06976c-.85817-.47686-1.88755-.48404-2.75249-.01945l-33.84793,18.16461c-.26958.14467-.26872.53155.0015.67503l33.53149,17.80385c1.09829.58339,2.41598.59353,3.52358.02452l34.09096-17.49782-.14162-.07905.40076-.30057c2.17967-1.63348,2.80026-4.15558,2.93723-5.98353l.03805-.5056,4.89889,2.71558c1.18939.65931,2.12158,1.7514,2.44348,3.07265.54402,2.233-.51637,4.43159-2.4546,5.42675l-38.75425,19.89182c-1.59967.82097-3.39675,1.25471-5.19764,1.25471ZM305.61348,32.51539c-1.58994,0-3.18073.38977-4.63497,1.17058l-37.88227,20.32922c-1.20093.64447-2.1501,1.72606-2.49095,3.04568-.57597,2.22992.45598,4.44676,2.38329,5.4698l37.70247,20.01906c3.04038,1.61488,6.87213,1.64109,9.93407.06848l38.75425-19.89097c1.59299-.81805,2.50012-2.57633,2.18024-4.4056-.22295-1.27494-1.09678-2.34389-2.22878-2.9714l-3.98063-2.20661c-.20841,1.78652-.87889,4.02664-2.76221,5.64575l.34496.19108-35.17361,18.05415c-1.2974.66286-2.83957.65272-4.1243-.02959l-33.80942-17.95074c-.61029-.32403-.61224-1.1978-.00339-1.52454l34.1248-18.31343c1.06024-.56944,2.32214-.56098,3.37477.02367l6.37752,3.53499v-7.17693l-3.33419-1.84824c-1.48426-.82266-3.11774-1.23441-4.75165-1.23441Z"/><path class="cls-2" d="M333.07465.32447h9.44533c1.76085,0,3.19044,1.42959,3.19044,3.19044v9.44533h-9.44533c-1.76085,0-3.19044-1.42959-3.19044-3.19044V.32447h0Z"/><path class="cls-7" d="M346.03504,13.28475h-9.77005c-1.93828,0-3.51512-1.57684-3.51512-3.51512V0h9.77005c1.93828,0,3.51512,1.57684,3.51512,3.5147v9.77005ZM333.39921.64934v9.12029c0,1.58022,1.28557,2.86578,2.86578,2.86578h9.12071V3.5147c0-1.5798-1.28557-2.86536-2.86578-2.86536h-9.12071Z"/><path class="cls-2" d="M319.2725,16.07058h9.44533c1.76085,0,3.19044,1.42959,3.19044,3.19044v9.44533h-9.44533c-1.76085,0-3.19044-1.42959-3.19044-3.19044v-9.44533h0Z"/><path class="cls-7" d="M332.23286,29.03113h-9.77005c-1.93828,0-3.51512-1.57684-3.51512-3.51512v-9.77005h9.77005c1.93828,0,3.51512,1.57684,3.51512,3.51512v9.77005ZM319.59702,16.3953v9.12071c0,1.58022,1.28557,2.86578,2.86578,2.86578h9.12071v-9.12071c0-1.58022-1.28557-2.86578-2.86578-2.86578h-9.12071Z"/><path class="cls-9" d="M339.87852,21.12488h9.44533c1.76085,0,3.19044,1.42959,3.19044,3.19044v9.44533h-9.44533c-1.76085,0-3.19044-1.42959-3.19044-3.19044v-9.44533h0Z"/><path class="cls-6" d="M352.83911,34.08546h-9.77005c-1.93828,0-3.51512-1.57684-3.51512-3.51512v-9.77005h9.77005c1.93828,0,3.51512,1.57684,3.51512,3.51512v9.77005ZM340.20328,21.44963v9.12071c0,1.58022,1.28557,2.86578,2.86578,2.86578h9.12071v-9.12071c0-1.58022-1.28557-2.86578-2.86578-2.86578h-9.12071Z"/><path class="cls-9" d="M322.57724,37.73683h11.3893c1.76085,0,3.19044,1.42959,3.19044,3.19044v11.3893h-11.3893c-1.76085,0-3.19044-1.42959-3.19044-3.19044v-11.3893h0Z"/><path class="cls-6" d="M337.48165,52.64141h-11.71383c-1.93828,0-3.51512-1.57684-3.51512-3.51512v-11.71425h11.71383c1.93828,0,3.51512,1.57684,3.51512,3.51512v11.71425ZM322.90204,38.06138v11.06491c0,1.58022,1.28557,2.86578,2.86578,2.86578h11.06449v-11.06491c0-1.58022-1.28557-2.86578-2.86578-2.86578h-11.06449Z"/><path class="cls-10" d="M0,104.90616L39.74897,6.58678h19.38326l40.45115,98.31938h-20.36614l-6.74193-17.13552H26.96772l-6.74193,17.13552H0ZM32.86669,70.91581h33.56929l-16.71447-43.11994h-.2807l-16.57412,43.11994Z"/><path class="cls-10" d="M111.75484,104.90616V6.58678h18.39953v98.31938h-18.39953Z"/><path class="cls-10" d="M356.40345,104.90616V35.38033h17.557v8.56776c5.524-6.4608,12.54663-9.69142,21.06832-9.69142,9.17567,0,16.5255,3.02009,22.05162,9.05941,5.52442,6.03975,8.28748,14.58553,8.28748,25.63353v35.95653h-17.55742v-34.55217c0-6.92836-1.52315-12.17124-4.56479-15.73117-3.04418-3.55739-7.04715-5.33715-12.0089-5.33715-5.24541,0-9.43481,1.92011-12.57115,5.75863-3.13803,3.84063-4.70515,9.12959-4.70515,15.87152v33.99035h-17.557Z"/><path class="cls-10" d="M465.11515,107.43417c-7.30418,0-13.85926-1.73325-19.66438-5.19638-5.80682-3.46312-9.78569-8.23929-11.9383-14.32681l15.16892-4.77532c2.90172,6.83578,8.47349,10.25324,16.71447,10.25324,4.21392,0,7.53669-.86494,9.97254-2.59819,2.43332-1.73156,3.65167-4.09555,3.65167-7.09365,0-2.80871-1.54471-4.68063-4.63497-5.61827-3.09026-.93427-7.42255-1.63687-12.99263-2.10696-5.57177-.46671-9.99622-1.35616-13.27249-2.66836-7.96028-3.37096-11.93915-9.12959-11.93915-17.27588,0-6.27226,2.71487-11.58785,8.14629-15.94169,5.42973-4.35427,12.0795-6.5314,19.94508-6.5314,7.39549,0,13.57602,1.73368,18.53988,5.1968,4.96217,3.46524,8.23929,8.05455,9.83219,13.76498l-14.88822,4.07314c-.84295-2.99599-2.38766-5.40775-4.63497-7.23358s-5.15072-2.73896-8.70854-2.73896c-3.46481,0-6.34455.89115-8.63752,2.66879-2.29635,1.77975-3.44199,3.88671-3.44199,6.32045,0,3.08984,1.70789,5.1968,5.12705,6.32045,3.41662,1.12365,8.00594,1.94462,13.76456,2.45784,5.75863.51575,10.08922,1.42888,12.99263,2.73896,7.86558,3.27881,11.79795,8.84846,11.79795,16.71405,0,7.11733-2.87974,12.8303-8.63836,17.13637-5.75863,4.30523-13.18033,6.46038-22.26172,6.46038Z"/><path class="cls-10" d="M538.8299,105.18686c-7.58488,0-13.7189-2.15261-18.39953-6.46038-4.68401-4.30608-7.02348-10.11289-7.02348-17.41707v-30.61938h-15.16892v-15.30969h15.16892V15.15497h17.27672v20.22536h19.52319v15.30969h-19.52319v26.82736c0,7.77343,4.02453,11.6576,12.07866,11.6576,2.52886,0,5.00868-.42105,7.44453-1.26401l1.82541,15.16892c-4.58847,1.4052-8.98839,2.10696-13.20231,2.10696Z"/><path class="cls-10" d="M560.25104,104.90616V35.38033h17.55658v9.12959c5.42973-7.11479,14.32681-10.53395,26.68701-10.25324v18.5403c-2.90341-1.40436-6.08837-2.10696-9.55149-2.10696-4.68316,0-8.70769,1.87445-12.07866,5.61827-3.37096,3.74636-5.05687,8.84889-5.05687,15.30927v33.28859h-17.55658Z"/><path class="cls-10" d="M641.5261,105.74911c-9.17778,0-16.52762-2.99557-22.0512-8.98924-5.52612-5.99113-8.28664-14.46716-8.28664-25.42258v-35.95695h17.55658v34.27147c0,6.83578,1.52103,12.05752,4.56479,15.66099,3.04207,3.60516,7.04461,5.4069,12.00933,5.4069,5.24288,0,9.43227-1.89559,12.57073-5.68845,3.13592-3.79202,4.70515-9.05941,4.70515-15.80092v-33.85h17.55658v69.52583h-17.41623v-8.56819h-.2807c-5.33757,6.27522-12.31455,9.41114-20.92839,9.41114Z"/><path class="cls-10" d="M728.23279,106.73241c-10.20759,0-18.9398-3.58234-26.19578-10.74532-7.25683-7.16298-10.88482-15.80134-10.88482-25.91381,0-10.20505,3.62799-18.93768,10.88482-26.19536,7.25599-7.25514,15.9882-10.88525,26.19578-10.88525,6.08498,0,11.77343,1.3828,17.06535,4.14332,5.28853,2.76306,9.66732,6.48532,13.13213,11.16637l-14.32597,10.3936c-3.65251-5.8047-8.94358-8.70811-15.87152-8.70811-5.71297-.09216-10.46462,1.80385-14.25663,5.68845-3.79202,3.88671-5.68845,8.73263-5.68845,14.53734,0,5.80724,1.89643,10.60455,5.68845,14.39656s8.54367,5.68845,14.25663,5.68845c3.37096.09469,6.48236-.65356,9.34012-2.24731,2.85522-1.59121,5.07801-3.79202,6.67175-6.60158l14.04526,10.3936c-3.46481,4.58931-7.81908,8.21731-13.06196,10.88567-5.24541,2.66836-10.91019,4.00339-16.99517,4.00339Z"/><path class="cls-10" d="M805.13102,105.18686c-7.58488,0-13.7189-2.15261-18.39953-6.46038-4.68401-4.30608-7.02348-10.11289-7.02348-17.41707v-30.61938h-15.16892v-15.30969h15.16892V15.15497h17.27672v20.22536h19.52319v15.30969h-19.52319v26.82736c0,7.77343,4.02453,11.6576,12.07866,11.6576,2.52886,0,5.00868-.42105,7.44453-1.26401l1.82541,15.16892c-4.58847,1.4052-8.98839,2.10696-13.20231,2.10696Z"/><path class="cls-10" d="M248.15088,76.94478c-2.06611,2.39955-4.49716,4.47105-7.31961,6.19088-4.9161,2.99726-10.32342,4.49462-16.22282,4.49462-8.80239,0-16.20084-3.11224-22.19197-9.34012-5.99367-6.22618-8.98924-13.74089-8.98924-22.5437,0-8.80027,2.99557-16.31456,8.98924-22.54327,5.99113-6.22576,13.38959-9.34012,22.19197-9.34012,5.8047,0,11.14228,1.47496,16.01187,4.42444,4.235,2.56601,7.65411,5.86141,10.26112,9.87954l16.2671-9.09561c-4.10316-6.87885-9.61516-12.46082-16.55568-16.72562-7.77343-4.77574-16.38727-7.16341-25.84406-7.16341-14.04526,0-25.89183,4.9161-35.53506,14.74786-9.64534,9.83177-14.46716,21.7705-14.46716,35.81618s4.82182,25.98484,14.46716,35.81618c9.64322,9.83219,21.48979,14.74786,35.53506,14.74786,9.55107,0,18.23551-2.43332,26.05459-7.30333,5.62218-3.50064,10.29784-7.86484,14.05662-13.06206l-16.70913-9.00034Z"/></svg>